<svg width="1024" height="1024" viewBox="0 0 1024 1024" fill="none" xmlns="http://www.w3.org/2000/svg">
<path d="M547.513 343.803C531.372 368.006 515.022 391.661 499.717 415.974C493.319 426.14 489.14 437.706 484.305 448.846C500.141 435.147 519.562 431.296 539.057 428.221C561.883 424.62 584.843 423.047 608.04 424.865C635.714 427.034 660.333 436.455 682.513 453.005C702.164 467.669 716.933 485.89 725.153 509.137C731.773 527.858 733.473 547.207 731.209 566.786C726.421 608.2 715.069 647.832 696.567 685.2C679.202 720.269 653.739 748.985 624.037 774.077C587.168 805.226 545.037 826.011 498.032 836.68C452.096 847.106 406.1 845.65 360.295 835.639C342.271 831.701 324.153 827.866 307.34 819.772C279.116 806.189 260.031 772.515 262.927 741.347C265.156 717.347 285.449 695.828 310.717 690.533C330.402 686.406 349.753 688.669 369.138 692.85C387.885 696.894 406.78 699.72 426.113 699.395C444.375 699.088 460.186 692.1 474.036 681.411C500.951 660.639 517.446 632.665 525.478 599.853C526.961 593.796 526.316 586.876 525.201 580.612C523.764 572.53 517.873 567.704 509.626 567.988C497.657 568.401 485.671 569.525 473.793 571.098C442.42 575.252 411.154 580.247 379.736 584.001C366.402 585.594 352.798 585.085 339.538 581.7C320.392 576.814 311.941 563.413 316.019 544.033C316.916 539.769 318.211 535.589 319.423 530.993C307.148 521.732 301.974 508.641 301.124 493.586C300.957 490.624 301.527 487.445 302.494 484.618C315.575 446.396 335.071 411.203 354.112 375.798C368.625 348.81 383.156 321.831 398.003 294.244C393.328 293.605 394.266 291.059 395.515 288.772C399.244 281.945 403.007 275.13 407.017 268.466C409.069 265.058 409.571 261.881 408.635 257.911C404.542 240.561 411.255 224.877 427.614 214.049C445.202 202.407 464.771 196.917 485.793 195.574C513.029 193.835 540.235 191.61 567.426 189.275C596.56 186.775 625.626 183.368 654.792 181.386C674.544 180.044 694.429 179.965 714.235 180.346C723.854 180.532 733.541 182.569 742.987 184.704C750.098 186.311 755.302 190.48 756.394 198.804C757.652 208.413 761.045 217.843 761.463 227.441C762.988 262.501 742.395 289.992 706.948 301.39C686.93 307.827 666.258 310.917 645.419 313.202C629.386 314.959 613.406 316.127 597.289 314.137C588.753 313.083 580.115 312.881 571.541 312.09C568.501 311.811 566.958 313.027 565.425 315.536C559.672 324.954 553.647 334.207 547.513 343.803ZM407.152 272.48L405.189 280.258L406.398 280.582L412.763 269.88L411.424 268.796C410.105 269.799 408.786 270.802 407.152 272.48ZM682.512 197.857L686.301 196.845C686.213 196.31 686.128 195.776 686.042 195.243L669.88 196.723L669.957 197.884C673.853 197.884 677.749 197.884 682.512 197.857Z" fill="white"/>
</svg>
